<svg width="120" height="120" viewBox="0 0 120 120" fill="none" xmlns="http://www.w3.org/2000/svg">
<circle cx="60" cy="60" r="60" fill="#FFD3AA" fill-opacity="0.72"/>
<path d="M92.448 52.96C92.448 53.152 92.256 53.28 91.872 53.344C91.552 53.344 91.36 53.248 91.296 53.056C90.848 49.536 89.6 46.88 87.552 45.088C85.504 43.232 82.816 42.304 79.488 42.304H74.592C71.84 42.304 69.952 42.688 68.928 43.456C67.968 44.224 67.488 45.696 67.488 47.872V68.8H76.32C79.776 68.8 82.304 68.224 83.904 67.072C85.568 65.92 86.4 64.192 86.4 61.888C86.4 61.76 86.592 61.696 86.976 61.696C87.36 61.696 87.552 61.76 87.552 61.888L87.456 69.952C87.456 71.872 87.488 73.312 87.552 74.272L87.648 79.072C87.648 79.2 87.456 79.264 87.072 79.264C86.688 79.264 86.496 79.2 86.496 79.072C86.496 76.32 85.664 74.304 84 73.024C82.336 71.68 79.68 71.008 76.032 71.008H67.488V91.84C67.488 93.888 67.744 95.392 68.256 96.352C68.832 97.248 69.888 97.888 71.424 98.272C72.96 98.656 75.392 98.848 78.72 98.848C78.848 98.848 78.912 99.04 78.912 99.424C78.912 99.808 78.848 100 78.72 100C76.096 100 74.048 99.968 72.576 99.904L63.552 99.808L56.832 99.904C55.616 99.968 53.92 100 51.744 100C51.616 100 51.552 99.808 51.552 99.424C51.552 99.04 51.616 98.848 51.744 98.848C54.112 98.848 55.84 98.688 56.928 98.368C58.08 98.048 58.848 97.44 59.232 96.544C59.616 95.584 59.808 94.144 59.808 92.224V47.776C59.808 45.856 59.616 44.448 59.232 43.552C58.848 42.656 58.112 42.048 57.024 41.728C56 41.344 54.368 41.152 52.128 41.152C51.936 41.152 51.84 40.96 51.84 40.576C51.84 40.192 51.936 40 52.128 40H91.296C91.936 40 92.256 40.288 92.256 40.864L92.448 52.96Z" fill="#1F1F1F"/>
<path d="M36.784 32.752C36.784 35.184 37.392 37.328 38.608 39.184C39.824 40.976 41.296 42.544 43.024 43.888C44.752 45.168 47.152 46.736 50.224 48.592C53.424 50.576 55.952 52.304 57.808 53.776C59.728 55.184 61.36 56.944 62.704 59.056C64.048 61.168 64.72 63.664 64.72 66.544C64.72 69.68 63.888 72.528 62.224 75.088C60.624 77.584 58.288 79.568 55.216 81.04C52.208 82.448 48.688 83.152 44.656 83.152C42.096 83.152 39.568 82.832 37.072 82.192C34.576 81.616 32.4 80.752 30.544 79.6C30.224 79.408 30 79.184 29.872 78.928C29.744 78.672 29.68 78.288 29.68 77.776L28.72 64.048C28.656 63.792 28.784 63.632 29.104 63.568C29.488 63.504 29.712 63.6 29.776 63.856C31.312 68.72 33.456 72.848 36.208 76.24C38.96 79.632 42.544 81.328 46.96 81.328C49.968 81.328 52.464 80.528 54.448 78.928C56.496 77.264 57.52 74.576 57.52 70.864C57.52 68.048 56.88 65.584 55.6 63.472C54.32 61.36 52.752 59.6 50.896 58.192C49.104 56.72 46.672 55.056 43.6 53.2C40.592 51.28 38.192 49.648 36.4 48.304C34.672 46.896 33.2 45.2 31.984 43.216C30.768 41.168 30.16 38.8 30.16 36.112C30.16 32.848 31.024 30.064 32.752 27.76C34.544 25.456 36.848 23.76 39.664 22.672C42.544 21.52 45.552 20.944 48.688 20.944C52.976 20.944 56.848 21.68 60.304 23.152C61.264 23.536 61.744 24.112 61.744 24.88L62.224 36.88C62.224 37.136 62.064 37.296 61.744 37.36C61.424 37.424 61.232 37.328 61.168 37.072C60.464 33.616 58.96 30.352 56.656 27.28C54.352 24.144 51.088 22.576 46.864 22.576C43.664 22.576 41.168 23.536 39.376 25.456C37.648 27.376 36.784 29.808 36.784 32.752Z" fill="#1F1F1F"/>
</svg>
